<svg width="32" height="32" viewBox="0 0 32 32" fill="none" xmlns="http://www.w3.org/2000/svg">
<path opacity="0.5" fill-rule="evenodd" clip-rule="evenodd" d="M8.44802 8.44933C7.47202 9.42533 6.70402 10.5653 6.16802 11.8373C5.61469 13.152 5.33335 14.552 5.33335 16H2.66669C2.66669 14.1947 3.01869 12.4453 3.71202 10.8013C4.38269 9.21066 5.34135 7.784 6.56269 6.564C7.78935 5.33866 9.21602 4.37866 10.8027 3.712C14.0187 2.356 17.7414 2.336 20.9827 3.63333C21.584 3.03466 22.4147 2.66666 23.3334 2.66666C25.1814 2.66666 26.6667 4.152 26.6667 6C26.6667 7.848 25.1814 9.33333 23.3334 9.33333C21.5254 9.33333 20.0734 7.908 20.0107 6.11466C17.412 5.06666 14.4174 5.08133 11.8374 6.16933C10.5694 6.70133 9.42935 7.46933 8.44802 8.44933ZM23.5507 23.5507C24.528 22.5733 25.296 21.432 25.8307 20.1627C26.3854 18.8467 26.6667 17.4467 26.6667 16H29.3334C29.3334 17.8053 28.9813 19.5533 28.2894 21.1973C27.6187 22.7867 26.6587 24.2133 25.436 25.436C24.2134 26.6587 22.7854 27.6187 21.196 28.2893C19.5534 28.9813 17.8054 29.3333 16 29.3333C14.2734 29.3333 12.6 29.0027 11.0174 28.3667C10.416 28.9653 9.58535 29.3333 8.66669 29.3333C6.81869 29.3333 5.33335 27.848 5.33335 26C5.33335 24.152 6.81869 22.6667 8.66669 22.6667C10.4747 22.6667 11.9267 24.092 11.988 25.8853C14.5854 26.9333 17.58 26.9187 20.1614 25.8307C21.432 25.296 22.5734 24.528 23.5507 23.5507ZM16 9.33333C12.3244 9.33333 9.33335 12.3244 9.33335 16C9.33335 19.6756 12.3244 22.6667 16 22.6667C19.6756 22.6667 22.6667 19.6756 22.6667 16C22.6667 12.3244 19.6756 9.33333 16 9.33333ZM18.6667 18.3204C18.6667 17.9889 18.3992 17.7238 18.0781 17.7238C17.8748 17.7238 17.725 17.8122 17.618 17.9447C17.2114 18.4641 16.794 18.7845 16.152 18.7845C15.3066 18.7845 14.6966 18.2652 14.397 17.3812H16.3232C16.5693 17.3812 16.7726 17.1713 16.7726 16.9061C16.7726 16.6519 16.5693 16.4309 16.3232 16.4309H14.2044C14.1937 16.2873 14.1937 16.1436 14.1937 15.9889C14.1937 15.8232 14.1937 15.6575 14.2151 15.5028H16.3232C16.5693 15.5028 16.7726 15.2928 16.7726 15.0387C16.7726 14.7735 16.5693 14.5635 16.3232 14.5635H14.4184C14.718 13.7348 15.2959 13.2155 16.0664 13.2155C16.7298 13.2155 17.1472 13.4917 17.5538 14C17.6394 14.1105 17.7892 14.221 18.0139 14.221C18.3564 14.221 18.6453 13.9337 18.6453 13.5801C18.6453 13.3812 18.5597 13.2155 18.4741 13.1271C17.9176 12.4641 17.2328 12 16.0985 12C14.5789 12 13.4767 13.0718 13.0594 14.5635H12.4602C12.2033 14.5635 12 14.7735 12 15.0387C12 15.2928 12.2033 15.5028 12.4602 15.5028H12.8882C12.8668 15.6685 12.8668 15.8453 12.8668 16.011C12.8668 16.1547 12.8668 16.2983 12.8775 16.4309H12.4602C12.2033 16.4309 12 16.6519 12 16.9061C12 17.1713 12.2033 17.3812 12.4602 17.3812H13.038C13.4446 18.9503 14.5575 20 16.1413 20C17.2435 20 17.9604 19.4807 18.5383 18.7072C18.6025 18.6298 18.6667 18.4862 18.6667 18.3204Z" fill="#979797"/>
</svg>
