<svg width="32" height="32" viewBox="0 0 32 32" fill="none" xmlns="http://www.w3.org/2000/svg">
<path opacity="0.5" d="M2.66669 10.6667V16.0013H4.00002V24H2.66669V28H4.00002H8.00002H10.6667H14.6667H17.3334H21.3334H24L28 28.0013V28H29.3334V24H28V16.0013H29.3334V10.6667L16 2.66667L2.66669 10.6667ZM8.00002 24V16.0013H10.6667V24H8.00002ZM14.6667 24V16.0013H17.3334V24H14.6667ZM24 24H21.3334V16.0013H24V24ZM18.6667 10.6667C18.6667 12.1387 17.472 13.3333 16 13.3333C14.528 13.3333 13.3334 12.1387 13.3334 10.6667C13.3334 9.19467 14.528 8 16 8C17.472 8 18.6667 9.19467 18.6667 10.6667Z" fill="#979797"/>
</svg>
