<svg width="32" height="32" viewBox="0 0 32 32" fill="none" xmlns="http://www.w3.org/2000/svg">
<path opacity="0.5" d="M25.3333 2.68001H8C6.392 2.68001 4 3.74534 4 6.68001V10.68V18.68V22.68V25.3467C4 28.2813 6.392 29.3467 8 29.3467H28V26.68H8.016C7.4 26.664 6.66667 26.42 6.66667 25.3467C6.66667 25.212 6.67867 25.092 6.69867 24.9827C6.848 24.216 7.476 24.0267 8.01467 24.0133H26.6667C26.6907 24.0133 26.708 24.0013 26.732 24H28V22.68V20V5.34667C28 3.87601 26.804 2.68001 25.3333 2.68001ZM25.3333 21.3467H6.66667V18.68V10.68V6.68001C6.66667 5.60534 7.4 5.36267 8 5.34667H17.3333V14.68L20 13.3467L22.6667 14.68V5.34667H25.3333V20V21.3467Z" fill="#979797"/>
</svg>
