<svg width="32" height="32" viewBox="0 0 32 32" fill="none" xmlns="http://www.w3.org/2000/svg">
<path opacity="0.5" d="M26.6667 8.00001H22.6667V5.33334C22.6667 3.86267 21.4707 2.66667 20 2.66667H12C10.5294 2.66667 9.33335 3.86267 9.33335 5.33334V8.00001H5.33335C3.86269 8.00001 2.66669 9.19601 2.66669 10.6667V16H9.33335V13.3333H12V16H20V13.3333H22.6667V16H29.3334V10.6667C29.3334 9.19601 28.1374 8.00001 26.6667 8.00001ZM12 5.33334H20V8.00001H12V5.33334ZM22.6667 20H20V17.3333H12V20H9.33335V17.3333H2.66669V25.3333C2.66669 26.804 3.86269 28 5.33335 28H26.6667C28.1374 28 29.3334 26.804 29.3334 25.3333V17.3333H22.6667V20Z" fill="#979797"/>
</svg>
