<svg width="24" height="48" viewBox="0 0 24 48" fill="none" xmlns="http://www.w3.org/2000/svg">
<path d="M12 2C6.486 2 2 6.486 2 12C2 17.514 6.486 22 12 22C17.514 22 22 17.514 22 12C22 6.486 17.514 2 12 2ZM12 20C7.589 20 4 16.411 4 12C4 7.589 7.589 4 12 4C16.411 4 20 7.589 20 12C20 16.411 16.411 20 12 20Z" fill="#979797"/>
<path fill-rule="evenodd" clip-rule="evenodd" d="M2 36C2 30.486 6.486 26 12 26C17.514 26 22 30.486 22 36C22 41.514 17.514 46 12 46C6.486 46 2 41.514 2 36ZM4 36C4 40.411 7.589 44 12 44C16.411 44 20 40.411 20 36C20 31.589 16.411 28 12 28C7.589 28 4 31.589 4 36ZM7.70002 35.292L9.99902 37.587L15.293 32.293L16.707 33.707L10.001 40.413L6.28802 36.708L7.70002 35.292Z" fill="#63CD89"/>
</svg>
