<svg width="32" height="32" viewBox="0 0 32 32" fill="none" xmlns="http://www.w3.org/2000/svg">
<path opacity="0.5" d="M16 2.66667C8.64802 2.66667 2.66669 8.64801 2.66669 16C2.66669 23.352 8.64802 29.3333 16 29.3333C23.352 29.3333 29.3334 23.352 29.3334 16C29.3334 8.64801 23.352 2.66667 16 2.66667ZM16 26.6667C10.1187 26.6667 5.33335 21.8813 5.33335 16C5.33335 10.1187 10.1187 5.33334 16 5.33334C21.8814 5.33334 26.6667 10.1187 26.6667 16C26.6667 21.8813 21.8814 26.6667 16 26.6667Z" fill="#979797"/>
<path opacity="0.5" d="M16 14.6667C13.3334 14.6667 13.3334 13.832 13.3334 13.3333C13.3334 12.688 14.268 12 16 12C17.58 12 17.848 12.8507 17.8667 13.3573L19.2 13.3333H20.5334C20.5334 11.9653 19.6454 10.0413 17.3334 9.49467V8.01601H14.6667V9.44667C12.0387 9.88801 10.6667 11.616 10.6667 13.3333C10.6667 14.8267 11.36 17.3333 16 17.3333C18.6667 17.3333 18.6667 18.2347 18.6667 18.6667C18.6667 19.22 17.84 20 16 20C13.5454 20 13.348 18.8573 13.3334 18.6667H10.6667C10.6667 19.8907 11.548 22.0707 14.6667 22.56V24H17.3334V22.5533C19.9614 22.112 21.3334 20.384 21.3334 18.6667C21.3334 17.1733 20.64 14.6667 16 14.6667Z" fill="#979797"/>
</svg>
