<svg width="32" height="32" viewBox="0 0 32 32" fill="none" xmlns="http://www.w3.org/2000/svg">
<g opacity="0.5">
<path d="M6.66665 12C7.02027 12 7.35941 12.1405 7.60945 12.3905C7.8595 12.6406 7.99998 12.9797 7.99998 13.3333C10.0948 13.3302 12.1293 14.035 13.7733 15.3333H16.6666C18.444 15.3333 20.04 16.1067 21.1386 17.3333H25.3333C26.5937 17.333 27.8283 17.6899 28.894 18.3627C29.9598 19.0355 30.8129 19.9967 31.3546 21.1347C28.2013 25.296 23.096 28 17.3333 28C13.6133 28 10.4666 27.196 7.91998 25.7893C7.8267 26.0467 7.6563 26.2691 7.432 26.4261C7.2077 26.5831 6.94044 26.6671 6.66665 26.6667H2.66665C2.31302 26.6667 1.97389 26.5262 1.72384 26.2761C1.47379 26.0261 1.33331 25.6869 1.33331 25.3333V13.3333C1.33331 12.9797 1.47379 12.6406 1.72384 12.3905C1.97389 12.1405 2.31302 12 2.66665 12H6.66665ZM8.00131 16L7.99998 22.696L8.05998 22.7387C10.4533 24.4187 13.5706 25.3333 17.3333 25.3333C21.3386 25.3333 25.0653 23.792 27.78 21.16L27.9573 20.9827L27.7973 20.8493C27.1677 20.3562 26.4045 20.0636 25.6066 20.0093L25.3333 20H22.5186C22.6146 20.4293 22.6666 20.8747 22.6666 21.3333V22.6667H10.6666V20L19.72 19.9987L19.6746 19.8947C19.4191 19.3607 19.0261 18.9044 18.5359 18.5726C18.0457 18.2408 17.476 18.0455 16.8853 18.0067L16.6666 18H12.76C12.1404 17.3663 11.4003 16.8629 10.5833 16.5194C9.76634 16.176 8.88891 15.9994 8.00265 16H8.00131ZM5.33331 14.6667H3.99998V24H5.33331V14.6667ZM24 6.66666C25.0608 6.66666 26.0783 7.08808 26.8284 7.83823C27.5786 8.58838 28 9.60579 28 10.6667C28 11.7275 27.5786 12.7449 26.8284 13.4951C26.0783 14.2452 25.0608 14.6667 24 14.6667C22.9391 14.6667 21.9217 14.2452 21.1716 13.4951C20.4214 12.7449 20 11.7275 20 10.6667C20 9.60579 20.4214 8.58838 21.1716 7.83823C21.9217 7.08808 22.9391 6.66666 24 6.66666ZM24 9.33332C23.6464 9.33332 23.3072 9.4738 23.0572 9.72385C22.8071 9.9739 22.6666 10.313 22.6666 10.6667C22.6666 11.0203 22.8071 11.3594 23.0572 11.6095C23.3072 11.8595 23.6464 12 24 12C24.3536 12 24.6927 11.8595 24.9428 11.6095C25.1928 11.3594 25.3333 11.0203 25.3333 10.6667C25.3333 10.313 25.1928 9.9739 24.9428 9.72385C24.6927 9.4738 24.3536 9.33332 24 9.33332ZM14.6666 2.66666C15.7275 2.66666 16.7449 3.08808 17.4951 3.83823C18.2452 4.58838 18.6666 5.60579 18.6666 6.66666C18.6666 7.72752 18.2452 8.74494 17.4951 9.49508C16.7449 10.2452 15.7275 10.6667 14.6666 10.6667C13.6058 10.6667 12.5884 10.2452 11.8382 9.49508C11.0881 8.74494 10.6666 7.72752 10.6666 6.66666C10.6666 5.60579 11.0881 4.58838 11.8382 3.83823C12.5884 3.08808 13.6058 2.66666 14.6666 2.66666V2.66666ZM14.6666 5.33332C14.313 5.33332 13.9739 5.4738 13.7238 5.72385C13.4738 5.9739 13.3333 6.31303 13.3333 6.66666C13.3333 7.02028 13.4738 7.35942 13.7238 7.60947C13.9739 7.85951 14.313 7.99999 14.6666 7.99999C15.0203 7.99999 15.3594 7.85951 15.6095 7.60947C15.8595 7.35942 16 7.02028 16 6.66666C16 6.31303 15.8595 5.9739 15.6095 5.72385C15.3594 5.4738 15.0203 5.33332 14.6666 5.33332V5.33332Z" fill="#979797"/>
</g>
</svg>
