<svg width="24" height="24" viewBox="0 0 24 24" fill="none" xmlns="http://www.w3.org/2000/svg">
<path fill-rule="evenodd" clip-rule="evenodd" d="M20.463 6.96763C20.787 7.44663 21.066 7.96163 21.292 8.49662C21.52 9.03363 21.697 9.60162 21.817 10.1856C21.938 10.7796 22 11.3896 22 11.9996C22 12.6096 21.938 13.2196 21.817 13.8116C21.697 14.3976 21.52 14.9656 21.292 15.5036C21.066 16.0376 20.787 16.5526 20.462 17.0326C20.14 17.5086 19.771 17.9566 19.364 18.3636C18.957 18.7706 18.51 19.1396 18.034 19.4616C17.55 19.7886 17.035 20.0676 16.503 20.2926C15.959 20.5226 15.39 20.6986 14.813 20.8166C14.223 20.9376 13.612 20.9996 13 20.9996C12.388 20.9996 11.778 20.9376 11.187 20.8166C10.61 20.6986 10.041 20.5216 9.497 20.2916C8.967 20.0676 8.452 19.7886 7.969 19.4626C7.492 19.1406 7.044 18.7716 6.637 18.3636L8.051 16.9496C8.369 17.2666 8.717 17.5546 9.088 17.8046C9.463 18.0586 9.864 18.2756 10.276 18.4496C10.699 18.6286 11.14 18.7656 11.589 18.8576C12.51 19.0466 13.494 19.0456 14.412 18.8576C14.86 18.7656 15.302 18.6286 15.725 18.4496C16.139 18.2746 16.538 18.0566 16.914 17.8036C17.283 17.5536 17.633 17.2656 17.95 16.9486C18.267 16.6326 18.554 16.2836 18.804 15.9126C19.057 15.5386 19.274 15.1396 19.45 14.7236C19.628 14.3056 19.764 13.8646 19.858 13.4096C19.952 12.9506 20 12.4756 20 11.9996C20 11.5236 19.952 11.0486 19.858 10.5856C19.764 10.1326 19.628 9.69162 19.45 9.27462C19.274 8.85763 19.057 8.45763 18.805 8.08563C18.554 7.71363 18.267 7.36462 17.95 7.04863C17.633 6.73163 17.283 6.44362 16.913 6.19263C16.538 5.94062 16.138 5.72263 15.725 5.54863C15.302 5.36962 14.859 5.23263 14.412 5.14063C13.493 4.95263 12.508 4.95163 11.589 5.14063C11.139 5.23263 10.697 5.36962 10.276 5.54863C9.863 5.72362 9.462 5.94063 9.086 6.19463C8.716 6.44463 8.367 6.73163 8.05 7.04963C7.733 7.36763 7.445 7.71563 7.195 8.08663C6.941 8.46163 6.724 8.86262 6.55 9.27462C6.371 9.69762 6.234 10.1386 6.142 10.5876C6.048 11.0476 6 11.5226 6 11.9996C6 12.0036 6.00025 12.0079 6.0005 12.0121C6.00075 12.0164 6.001 12.0206 6.001 12.0246H8L5 15.9996L2 12.0246H4.001C4.001 12.0206 4.00075 12.0164 4.0005 12.0121C4.00025 12.0079 4 12.0036 4 11.9996C4 11.3876 4.062 10.7776 4.183 10.1856C4.301 9.60862 4.478 9.03963 4.708 8.49563C4.932 7.96563 5.211 7.45163 5.537 6.96763C5.859 6.49163 6.229 6.04263 6.636 5.63563C7.043 5.22863 7.492 4.85863 7.969 4.53663C8.453 4.20963 8.967 3.93163 9.498 3.70663C10.041 3.47763 10.609 3.30063 11.188 3.18263C12.37 2.93863 13.633 2.93963 14.814 3.18263C15.39 3.30063 15.959 3.47763 16.504 3.70763C17.035 3.93263 17.55 4.21063 18.032 4.53663C18.51 4.85963 18.956 5.22763 19.364 5.63463C19.772 6.04163 20.141 6.48963 20.463 6.96763ZM12 13V8H14V11H17V13H12Z" fill="#272727"/>
</svg>
