<svg width="24" height="24" viewBox="0 0 24 24" fill="none" xmlns="http://www.w3.org/2000/svg">
<rect x="3" y="3" width="18" height="18" rx="3" fill="#F7D595"/>
<path d="M8.7 9C9.67333 9 10.42 9.18667 10.94 9.56C11.4667 9.92667 11.73 10.4767 11.73 11.21C11.73 11.61 11.6567 11.9533 11.51 12.24C11.37 12.52 11.1633 12.75 10.89 12.93C10.6233 13.1033 10.2967 13.23 9.91 13.31C9.52333 13.39 9.08667 13.43 8.6 13.43H7.83V16H6.86V9.17C7.13333 9.10333 7.43667 9.06 7.77 9.04C8.11 9.01333 8.42 9 8.7 9ZM8.78 9.85C8.36667 9.85 8.05 9.86 7.83 9.88V12.6H8.56C8.89333 12.6 9.19333 12.58 9.46 12.54C9.72667 12.4933 9.95 12.42 10.13 12.32C10.3167 12.2133 10.46 12.07 10.56 11.89C10.66 11.71 10.71 11.48 10.71 11.2C10.71 10.9333 10.6567 10.7133 10.55 10.54C10.45 10.3667 10.31 10.23 10.13 10.13C9.95667 10.0233 9.75333 9.95 9.52 9.91C9.28667 9.87 9.04 9.85 8.78 9.85ZM16.754 10.84C16.754 11.08 16.704 11.3133 16.604 11.54C16.5107 11.76 16.384 11.98 16.224 12.2C16.064 12.4133 15.884 12.6267 15.684 12.84C15.484 13.0467 15.284 13.25 15.084 13.45C14.9707 13.5633 14.8373 13.6967 14.684 13.85C14.5373 14.0033 14.3973 14.1633 14.264 14.33C14.1307 14.4967 14.0173 14.6567 13.924 14.81C13.8373 14.9633 13.794 15.0967 13.794 15.21H16.984V16H12.784C12.7773 15.96 12.774 15.92 12.774 15.88C12.774 15.84 12.774 15.8033 12.774 15.77C12.774 15.4567 12.824 15.1667 12.924 14.9C13.0307 14.6267 13.1673 14.37 13.334 14.13C13.5007 13.89 13.6873 13.6633 13.894 13.45C14.1007 13.2367 14.304 13.03 14.504 12.83C14.6707 12.67 14.8273 12.5133 14.974 12.36C15.1273 12.2 15.2607 12.0433 15.374 11.89C15.494 11.73 15.5873 11.5667 15.654 11.4C15.7273 11.2333 15.764 11.0567 15.764 10.87C15.764 10.67 15.7307 10.5 15.664 10.36C15.604 10.22 15.5207 10.1033 15.414 10.01C15.3073 9.91667 15.1807 9.85 15.034 9.81C14.894 9.76333 14.744 9.74 14.584 9.74C14.3907 9.74 14.214 9.76667 14.054 9.82C13.894 9.87333 13.7507 9.93667 13.624 10.01C13.4973 10.0767 13.3907 10.15 13.304 10.23C13.2173 10.3033 13.1507 10.36 13.104 10.4L12.644 9.74C12.704 9.67333 12.794 9.59333 12.914 9.5C13.034 9.4 13.1773 9.30667 13.344 9.22C13.5107 9.13333 13.6973 9.06 13.904 9C14.1107 8.94 14.334 8.91 14.574 8.91C15.3007 8.91 15.844 9.08 16.204 9.42C16.5707 9.75333 16.754 10.2267 16.754 10.84Z" fill="#272727"/>
</svg>
