<svg width="24" height="24" viewBox="0 0 24 24" fill="none" xmlns="http://www.w3.org/2000/svg">
<rect x="3" y="3" width="18" height="18" rx="3" fill="#FF8484"/>
<path d="M9.7 9C10.6733 9 11.42 9.18667 11.94 9.56C12.4667 9.92667 12.73 10.4767 12.73 11.21C12.73 11.61 12.6567 11.9533 12.51 12.24C12.37 12.52 12.1633 12.75 11.89 12.93C11.6233 13.1033 11.2967 13.23 10.91 13.31C10.5233 13.39 10.0867 13.43 9.6 13.43H8.83V16H7.86V9.17C8.13333 9.10333 8.43667 9.06 8.77 9.04C9.11 9.01333 9.42 9 9.7 9ZM9.78 9.85C9.36667 9.85 9.05 9.86 8.83 9.88V12.6H9.56C9.89333 12.6 10.1933 12.58 10.46 12.54C10.7267 12.4933 10.95 12.42 11.13 12.32C11.3167 12.2133 11.46 12.07 11.56 11.89C11.66 11.71 11.71 11.48 11.71 11.2C11.71 10.9333 11.6567 10.7133 11.55 10.54C11.45 10.3667 11.31 10.23 11.13 10.13C10.9567 10.0233 10.7533 9.95 10.52 9.91C10.2867 9.87 10.04 9.85 9.78 9.85ZM14.014 10.5C14.394 10.3533 14.764 10.1667 15.124 9.94C15.484 9.70667 15.814 9.41667 16.114 9.07H16.774V16H15.844V10.36C15.764 10.4333 15.664 10.51 15.544 10.59C15.4307 10.67 15.304 10.7467 15.164 10.82C15.0307 10.8933 14.8873 10.9633 14.734 11.03C14.5873 11.0967 14.444 11.1533 14.304 11.2L14.014 10.5Z" fill="#272727"/>
</svg>
