<svg width="24" height="24" viewBox="0 0 24 24" fill="none" xmlns="http://www.w3.org/2000/svg">
<rect x="3" y="3" width="18" height="18" rx="3" fill="#63CD89" fill-opacity="0.7"/>
<path d="M8.7 9C9.67333 9 10.42 9.18667 10.94 9.56C11.4667 9.92667 11.73 10.4767 11.73 11.21C11.73 11.61 11.6567 11.9533 11.51 12.24C11.37 12.52 11.1633 12.75 10.89 12.93C10.6233 13.1033 10.2967 13.23 9.91 13.31C9.52333 13.39 9.08667 13.43 8.6 13.43H7.83V16H6.86V9.17C7.13333 9.10333 7.43667 9.06 7.77 9.04C8.11 9.01333 8.42 9 8.7 9ZM8.78 9.85C8.36667 9.85 8.05 9.86 7.83 9.88V12.6H8.56C8.89333 12.6 9.19333 12.58 9.46 12.54C9.72667 12.4933 9.95 12.42 10.13 12.32C10.3167 12.2133 10.46 12.07 10.56 11.89C10.66 11.71 10.71 11.48 10.71 11.2C10.71 10.9333 10.6567 10.7133 10.55 10.54C10.45 10.3667 10.31 10.23 10.13 10.13C9.95667 10.0233 9.75333 9.95 9.52 9.91C9.28667 9.87 9.04 9.85 8.78 9.85ZM14.344 15.32C14.9373 15.32 15.3607 15.2033 15.614 14.97C15.874 14.7367 16.004 14.4233 16.004 14.03C16.004 13.7767 15.9507 13.5633 15.844 13.39C15.7373 13.2167 15.5973 13.08 15.424 12.98C15.2507 12.8733 15.0473 12.8 14.814 12.76C14.5873 12.7133 14.354 12.69 14.114 12.69H13.874V11.93H14.204C14.3707 11.93 14.5407 11.9133 14.714 11.88C14.894 11.8467 15.0573 11.7867 15.204 11.7C15.3507 11.6133 15.4707 11.4967 15.564 11.35C15.6573 11.1967 15.704 11.0067 15.704 10.78C15.704 10.5933 15.6707 10.4333 15.604 10.3C15.5373 10.1667 15.4473 10.0567 15.334 9.97C15.2273 9.88333 15.1007 9.82333 14.954 9.79C14.814 9.75 14.664 9.73 14.504 9.73C14.184 9.73 13.9107 9.77667 13.684 9.87C13.464 9.96333 13.2773 10.06 13.124 10.16L12.764 9.45C12.844 9.39667 12.944 9.34 13.064 9.28C13.1907 9.21333 13.3307 9.15333 13.484 9.1C13.6373 9.04667 13.8007 9.00333 13.974 8.97C14.154 8.93 14.3407 8.91 14.534 8.91C14.9007 8.91 15.2173 8.95667 15.484 9.05C15.7507 9.13667 15.9707 9.26333 16.144 9.43C16.3173 9.59 16.4473 9.78333 16.534 10.01C16.6207 10.23 16.664 10.47 16.664 10.73C16.664 11.09 16.5607 11.4 16.354 11.66C16.1473 11.9133 15.8973 12.1067 15.604 12.24C15.784 12.2933 15.9573 12.37 16.124 12.47C16.2907 12.57 16.434 12.6967 16.554 12.85C16.6807 13.0033 16.7807 13.18 16.854 13.38C16.934 13.58 16.974 13.8033 16.974 14.05C16.974 14.35 16.9207 14.63 16.814 14.89C16.714 15.1433 16.554 15.3633 16.334 15.55C16.1207 15.7367 15.8507 15.8833 15.524 15.99C15.1973 16.0967 14.8107 16.15 14.364 16.15C14.1907 16.15 14.0107 16.1367 13.824 16.11C13.644 16.0833 13.474 16.05 13.314 16.01C13.154 15.97 13.014 15.93 12.894 15.89C12.774 15.85 12.6873 15.8167 12.634 15.79L12.814 14.98C12.9273 15.0333 13.114 15.1033 13.374 15.19C13.6407 15.2767 13.964 15.32 14.344 15.32Z" fill="#272727"/>
</svg>
